<svg xmlns="http://www.w3.org/2000/svg" viewBox="0 0 1080 420.13"><defs><style>.cls-1{fill:#c0fd35;}</style></defs><title>Recurso 1</title><g id="Capa_2" data-name="Capa 2"><g id="Capa_1-2" data-name="Capa 1"><path class="cls-1" d="M649.44,0H592.92L526.66,272.55H520L443.79,0H292.25V160.36s17.64,181-137.71,181c-20.34,0-37.24-4.35-51.31-11.72V85.19H225.9V0H0V420.13H205.86c135.1,0,173.38-92,173.38-183.36V126.68h7.31l75.48,291H566.36l75.48-290.95h7.6V420.13H752.67V0H649.44Z"/><polygon class="cls-1" points="973.56 0 973.56 156.15 797.37 156.15 797.37 254.16 973.56 254.16 973.56 420.13 1080 420.13 1080 0 973.56 0"/></g></g></svg>